<?xml version="1.0" encoding="UTF-8"?>
<!-- Created with Inkscape (http://www.inkscape.org/) -->
<svg width="1740.8" height="816.25" version="1.1" viewBox="0 0 1740.8 816.25" xml:space="preserve" xmlns="http://www.w3.org/2000/svg"><defs><clipPath id="clipPath20"><path d="m5131.6 2936c0-715.67 580.19-1295.9 1295.9-1295.9 715.7 0 1295.9 580.2 1295.9 1295.9 0 715.69-580.18 1295.9-1295.9 1295.9-715.68 0-1295.9-580.19-1295.9-1295.9"/></clipPath><clipPath id="clipPath26"><path d="m-0.011719 489.41h11480v5050.8h-11480z"/></clipPath></defs><g transform="matrix(1.3333 0 0 -1.3333 126 690.25)"><g transform="scale(.1)"><path d="m6427.5 4231.8c-715.66 0-1295.8-580.19-1295.8-1295.9 0-715.66 580.19-1295.8 1295.8-1295.8 715.7 0 1295.9 580.19 1295.9 1295.8 0 715.69-580.18 1295.9-1295.9 1295.9" fill="#100f0d"/><g clip-path="url(#clipPath20)"><g clip-path="url(#clipPath26)"><path d="m4916.2 1528.1 133.23-99.9 1057.6 1380.3h-208.14l-982.68-1280.4" fill="#f9b00b"/><path d="m5259.7 1528.1 133.23-99.9 1057.6 1380.3h-208.15l-982.68-1280.4" fill="#f9b00b"/><path d="m7047.6 3169h-208.16l1069.7 1395.6 133.25-99.9-994.76-1295.7" fill="#f9b00b"/><path d="m6695 3169h-208.18l1069.7 1395.6 133.26-99.9-994.77-1295.7" fill="#f9b00b"/><path d="m4517.2 2106.8-133.25 99.92 2499.9 3333.5 133.21-99.9-2499.8-3333.5" fill="#f9b00b"/><path d="m4715.5 1908.6-133.26 99.9 2499.8 3333.5 133.24-99.9-2499.8-3333.5" fill="#f9b00b"/><path d="m4913.8 1710.3-133.23 99.9 2499.8 3333.5 133.23-99.89-2499.8-3333.5" fill="#f9b00b"/><path d="m5684.2 896.92-133.26 99.898 2499.9 3333.5 133.21-99.9-2499.8-3333.5" fill="#f9b00b"/><path d="m6091.8 489.42-133.25 99.898 2499.8 3333.5 133.21-99.91-2499.8-3333.5" fill="#f9b00b"/><path d="m5889.4 691.81-133.26 99.902 2499.8 3333.5 133.24-99.92-2499.8-3333.5" fill="#f9b00b"/><path d="m6299.3 3074.3 735.61 995.48c-49.18 27.65-100.2 52.26-152.96 73.61l-915.68-1235.6h664.98l-807.85-1091.3c51.31-25.06 104.57-46.7 159.33-65.13l981.72 1323h-665.15" fill="#74c5e1"/></g></g><path d="m6427.5 4231.8c-715.66 0-1295.8-580.19-1295.8-1295.9 0-715.66 580.19-1295.8 1295.8-1295.8 715.7 0 1295.9 580.19 1295.9 1295.8 0 715.69-580.18 1295.9-1295.9 1295.9m0-143.78c635.28 0 1152.1-516.82 1152.1-1152.1 0-635.27-516.83-1152.1-1152.1-1152.1-635.27 0-1152.1 516.8-1152.1 1152.1 0 635.28 516.8 1152.1 1152.1 1152.1" fill="#100f0d"/><path d="m431.95 3864.7v-986.3h68.391c40.785 0 71.359 10.81 91.801 32.4 20.343 21.62 30.578 52.77 30.578 93.6v741.52c0 40.76-10.235 70.74-30.578 89.98-20.442 19.2-51.016 28.8-91.801 28.8zm0-1378.6v-678.07l-431.95-167.85v2591.7h536.31c187.2 0 322.2-39.59 404.99-118.78 82.769-79.17 124.15-193.19 124.15-341.95v-784.73c0-153.6-41.38-275.4-124.15-365.35-82.793-90.01-216.6-134.99-401.38-134.99h-107.98" fill="#100f0d"/><path d="m1676.7 2272c10.9 19.08 16.36 53.18 16.36 102.28v1142.5c0 47.23-5.46 80.85-16.36 100.88-10.9 19.98-30.94 29.98-60 29.98-29.09 0-48.65-10-58.62-29.98-10.01-20.03-15-53.65-15-100.88v-1142.5c0-49.1 5.44-83.2 16.35-102.28 10.92-19.09 30.91-28.63 60-28.63 27.27 0 46.37 9.54 57.27 28.63m-361.31-246.79c-75.46 63.62-113.15 168.15-113.15 313.6v1197.1c0 136.34 37.69 238.11 113.15 305.38 75.41 67.24 176.77 100.88 304.04 100.88 125.44 0 225.85-33.64 301.33-100.88 75.38-67.27 113.13-169.04 113.13-305.38v-1197.1c0-145.45-38.63-249.98-115.89-313.6-77.28-63.62-177.7-95.39-301.3-95.39-125.42 0-225.9 31.77-301.31 95.39" fill="#100f0d"/><path d="m2595.6 1954.3h-299.96l-215.4 1963.3h316.28l72.77-1058.6c1.32-19.17 29.24-19.8 31.44-0.72l122.14 1059.3h209.94l112.74-1077.9c2.01-19.12 29.95-18.74 31.44 0.46l82.14 1077.5h313.6l-231.79-1963.3h-297.23l-107.16 1007.5c-1.99 18.79-29.36 18.81-31.39 0.03l-109.56-1007.5" fill="#100f0d"/><path d="m4623.9 1954.3h-1180.3v1963.3h640.79v-310.87h-313.58v-504.46h262.32l0.6-313.58h-262.92v-515.36h757.13l95.92-319.02" fill="#100f0d"/><path d="m4509.5 3639.5h51.81c30.89 0 54.06-7.29 69.52-21.81 15.43-14.59 23.17-37.28 23.17-68.17v-364.88c0-30.94-7.74-54.54-23.17-70.88-15.46-16.39-38.63-24.59-69.52-24.59h-51.81zm621.95-1685.1-298.28 890.86c23.65 13.75 44.59 29.91 62.18 48.98 62.71 68.17 94.05 160.43 94.05 276.77v397.63c0 112.68-31.34 199.06-94.05 259.04-62.73 59.98-164.98 89.98-306.77 89.98h-406.29v-1537.8h327.21v251.92c0 23.29 32.62 28.61 40.02 6.54l228.99-683.87h352.94" fill="#100f0d"/><path d="m8494.8 3004.4c0-40.83-10.26-71.98-30.6-93.57-20.42-21.62-51.02-32.42-91.78-32.42h-68.39v986.3h68.39c40.76 0 71.36-9.61 91.78-28.8 20.34-19.24 30.6-49.22 30.6-89.98zm-86.39 1227.5h-536.35v-2591.8l431.97 167.88v678.05h107.98c184.77 0 318.58 44.97 401.37 134.98 82.77 89.98 124.18 211.76 124.18 365.36v784.73c0 148.75-41.41 262.77-124.18 341.97-82.79 79.17-217.79 118.78-404.97 118.78" fill="#100f0d"/><path d="m9377.8 3917.6h-338.86v-1781.6c0-94 76.25-170.25 170.28-170.25h1157.1v336.15h-988.54v1615.7" fill="#100f0d"/><path d="m10726 3917.6-84.9-831.31c-1.9-18.05-28.2-17.97-29.9 0.07l-80.4 831.24h-333.4l254.8-1476.1v-475.75h341.6v483.9l263 1468h-330.8" fill="#100f0d"/><path d="m9917 3272.9 26.91-221.44-96.83-45.77 32.49 267.21c2.47 22.33 34.94 22.33 37.43 0m-108.05-580.8 168.94 79.86 39.7-326.37h325.3l-282 1472h-330.7l-271.07-1472h319.86l29.97 246.51" fill="#100f0d"/><path d="m2376 548.2h-34.69v-52.027h34.69c16.81 0 27.48 10.398 27.48 25.879 0 15.469-10.67 26.148-27.48 26.148zm1.86-85.39h-36.55v-71.52h-37.09v190h73.64c39.24 0 62.71-26.957 62.71-59.238 0-32.289-23.47-59.242-62.71-59.242" fill="#100f0d"/><path d="m2557.3 548.2h-34.96v-50.168h34.96c16.28 0 26.94 10.399 26.94 25.078 0 14.672-10.66 25.09-26.94 25.09zm28.82-156.91-37.1 75.789h-26.68v-75.789h-37.09v190h74.45c38.69 0 61.64-26.43 61.64-58.18 0-26.679-16.28-43.218-34.69-49.898l42.43-81.922h-42.96" fill="#100f0d"/><path d="m2673.2 391.29v190h125.15v-33.09h-88.05v-44.57h74.97v-33.078h-74.97v-46.172h88.05v-33.09h-125.15" fill="#100f0d"/><path d="m2900.4 389.7c-28.81 0-50.68 6.129-69.37 25.071l24.02 24.019c12.01-12.008 28.27-16.019 45.9-16.019 21.88 0 33.61 8.281 33.61 23.492 0 6.668-1.86 12.277-5.87 16.019-3.74 3.449-8.01 5.328-16.81 6.66l-22.94 3.207c-16.28 2.391-28.29 7.473-36.83 15.743-9.07 9.07-13.61 21.347-13.61 37.347 0 33.891 25.09 57.641 66.17 57.641 26.16 0 45.1-6.41 61.38-22.141l-23.49-23.218c-11.99 11.48-26.41 13.07-38.95 13.07-19.74 0-29.36-10.93-29.36-24.012 0-4.797 1.61-9.879 5.62-13.598 3.72-3.468 9.87-6.41 17.61-7.48l22.41-3.199c17.34-2.41 28.29-7.211 36.29-14.672 10.14-9.617 14.67-23.488 14.67-40.301 0-36.816-30.68-57.629-70.45-57.629" fill="#100f0d"/><path d="m3019.2 391.29v190h125.15v-33.09h-88.06v-44.57h74.97v-33.078h-74.97v-46.172h88.06v-33.09h-125.15" fill="#100f0d"/><path d="m3306.4 391.29-75.23 116.61v-116.61h-37.1v190h33.09l75.26-116.35v116.35h37.08v-190h-33.1" fill="#100f0d"/><path d="m3469.8 548.2v-156.91h-37.1v156.91h-49.62v33.09h136.36v-33.09h-49.64" fill="#100f0d"/><path d="m3563.1 391.29v190h125.14v-33.09h-88.05v-44.57h74.98v-33.078h-74.98v-46.172h88.05v-33.09h-125.14" fill="#100f0d"/><path d="m3830.8 536.45c-6.41 7.742-14.95 11.75-27.76 11.75h-28.01v-123.82h28.01c12.81 0 21.35 4.012 27.76 11.75 6.94 8.543 8.01 22.141 8.01 50.949 0 28.82-1.07 40.832-8.01 49.371zm25.88-127.02c-12.54-12.539-30.41-18.141-50.17-18.141h-68.57v190h68.57c19.76 0 37.63-5.609 50.17-18.16 21.35-21.34 19.21-47.488 19.21-76.051 0-28.539 2.14-56.297-19.21-77.648" fill="#100f0d"/><path d="m4078.3 471.08h-38.69v-46.699h38.69c16.81 0 24.82 10.672 24.82 23.48 0 12.813-8.01 23.219-24.82 23.219zm-2.41 77.121h-36.28v-43.758h36.28c15.75 0 24.55 8.797 24.55 21.879 0 13.071-8.8 21.879-24.55 21.879zm6.15-156.91h-79.53v190h76.32c37.09 0 58.71-20.82 58.71-53.379 0-21.078-13.87-34.68-23.49-39.219 11.48-5.332 26.15-17.339 26.15-42.691 0-35.488-24.28-54.711-58.16-54.711" fill="#100f0d"/><path d="m4264.2 469.21v-77.922h-36.82v77.922l-57.11 112.08h40.3l35.49-76.578 34.95 76.578h40.3l-57.11-112.08" fill="#100f0d"/><path d="m6549 497.9h84.78l149.55 344.85h-89.85l-46.04-127.98-48.83 127.98h-91.72l98.64-226.6zm975.64-34.859h39.55v-344.38h-39.55zm731.36-11.168c4.96-5.269 7.46-11.941 7.46-20.012 0-8.058-2.5-14.738-7.46-20.019-4.95-5.262-11.49-7.91-19.55-7.91-8.07 0-14.57 2.648-19.54 7.91-4.96 5.281-7.43 11.961-7.43 20.019 0 8.071 2.47 14.743 7.43 20.012 4.97 5.27 11.47 7.899 19.54 7.899 8.06 0 14.6-2.629 19.55-7.899m-1067.8 150.78v130.31c0 28.527-10.7 42.789-32.1 42.789-11.8 0-20.71-3.949-26.76-11.852-6.07-7.91-9.08-19.32-9.08-34.207v-127.04h-83.77v353.67h83.77v-139.14c6.82 10.539 16.12 18.679 27.92 24.429 11.78 5.743 25.12 8.602 40.02 8.602 27.61 0 48.49-8.531 62.59-25.59 14.12-17.07 21.18-42.351 21.18-75.851v-146.12zm231.92-405.56c-3.73-10.711-9.07-19.789-16.05-27.238-6.98-7.442-15.3-13.262-24.9-17.454-9.61-4.168-20.47-6.269-32.58-6.269-12.08 0-22.95 2.101-32.56 6.269-9.63 4.192-17.93 10.012-24.91 17.454-6.98 7.449-12.34 16.527-16.06 27.238-3.71 10.699-5.57 22.57-5.57 35.59 0 13.039 1.86 24.91 5.57 35.609 3.72 10.691 9.08 19.762 16.06 27.231 6.98 7.429 15.28 13.242 24.91 17.441 9.61 4.18 20.48 6.277 32.56 6.277 12.11 0 22.97-2.097 32.58-6.277 9.6-4.199 17.92-10.012 24.9-17.441 6.98-7.469 12.32-16.54 16.05-27.231 3.73-10.699 5.59-22.57 5.59-35.609 0-13.02-1.86-24.891-5.59-35.59m11.87 122.62c-10.69 10.859-23.34 19.391-37.92 25.598-14.59 6.211-30.43 9.3-47.48 9.3s-32.88-3.089-47.46-9.3c-14.59-6.207-27.22-14.739-37.92-25.598-10.72-10.859-19.09-23.742-25.14-38.621-6.04-14.899-9.08-31.031-9.08-48.41 0-17.371 3.04-33.5 9.08-48.399 6.05-14.89 14.42-27.769 25.14-38.621 10.7-10.851 23.33-19.39 37.92-25.601 14.58-6.188 30.41-9.309 47.46-9.309s32.89 3.121 47.48 9.309c14.58 6.211 27.23 14.75 37.92 25.601 10.7 10.852 19.08 23.731 25.13 38.621 6.05 14.899 9.07 31.028 9.07 48.399 0 17.379-3.02 33.511-9.07 48.41-6.05 14.879-14.43 27.762-25.13 38.621m784.87 28.379h39.55v-229.43h-39.55zm-122.82 476.53c14.11-17.07 21.16-42.351 21.16-75.851v-146.12h-83.76v130.31c0 28.527-10.7 42.789-32.12 42.789-11.79 0-20.7-3.949-26.75-11.852-6.05-7.91-9.07-19.32-9.07-34.207v-127.04h-83.77v240.13h81.92l0.93-29.801c6.19 11.801 15.26 20.95 27.2 27.461 11.95 6.52 25.83 9.77 41.66 9.77 27.6 0 48.47-8.531 62.6-25.59m-705.26-75.391c5.26 26.68 19.69 40.008 43.27 40.008 11.46 0 20.76-3.488 27.91-10.457 7.12-6.98 11.46-16.832 13.02-29.551zm162.41-19.082c0 18.622-2.72 35.301-8.14 50.032-5.44 14.73-13.27 27.3-23.51 37.699-10.25 10.391-22.66 18.371-37.23 23.961-14.58 5.582-30.88 8.371-48.86 8.371-18.62 0-35.6-3.09-50.96-9.289-15.35-6.231-28.62-14.891-39.79-26.07-11.17-11.161-19.77-24.59-25.82-40.262-6.05-15.649-9.09-32.961-9.09-51.879 0-19.563 3.35-37.231 10.02-53.039 6.66-15.832 16.28-29.262 28.84-40.262 12.57-11.019 27.77-19.48 45.61-25.359 17.84-5.903 37.93-8.86 60.28-8.86 18.6 0 36.52 2.18 53.74 6.52 17.21 4.34 31.88 10.559 43.98 18.617l-26.53 53.512c-9.93-4.352-20.72-7.68-32.35-10-11.62-2.32-22.09-3.481-31.4-3.481-38.17 0-61.44 13.629-69.81 40.942h158.22c1.87 7.75 2.8 17.379 2.8 28.847m199.17-48.867c-9.62-10.543-22.34-15.812-38.15-15.812-15.82 0-28.55 5.269-38.17 15.812-9.62 10.551-14.42 24.36-14.42 41.43 0 17.059 4.8 30.867 14.42 41.41 9.62 10.551 22.35 15.828 38.17 15.828 15.81 0 28.53-5.277 38.15-15.828 9.61-10.543 14.42-24.351 14.42-41.41 0-17.07-4.81-30.879-14.42-41.43m56.31 132.64c-11.79 11.476-25.75 20.387-41.89 26.758-16.14 6.351-33.65 9.531-52.57 9.531-18.95 0-36.48-3.18-52.59-9.531-16.14-6.371-30.1-15.282-41.88-26.758-11.79-11.481-21.03-24.981-27.69-40.492-6.68-15.512-10.01-32.41-10.01-50.719 0-18.313 3.33-35.211 10.01-50.723 6.66-15.508 15.9-29.008 27.69-40.5 11.78-11.476 25.74-20.386 41.88-26.75 16.11-6.359 33.64-9.547 52.59-9.547 18.92 0 36.43 3.188 52.57 9.547 16.14 6.364 30.1 15.274 41.89 26.75 11.79 11.492 21.01 24.992 27.68 40.5 6.68 15.512 10.01 32.41 10.01 50.723 0 18.309-3.33 35.207-10.01 50.719-6.67 15.511-15.89 29.011-27.68 40.492m-660.88-484.68c14.26-16.898 21.4-41.648 21.4-74.218v-136.36h-39.55v129.38c0 24.82-4.27 42.981-12.8 54.441-8.54 11.489-22.11 17.231-40.71 17.231-20.49 0-36.39-6.75-47.71-20.25s-16.99-32.332-16.99-56.543v-124.26h-39.55v229.43h37.23l0.6-40.731c5.3 12.653 13.13 23 23.6 30.961 14.27 10.86 31.64 16.289 52.12 16.289 27.29 0 48.09-8.449 62.36-25.371m669.4-132.15c-3.73-10.711-9.09-19.789-16.05-27.238-6.99-7.442-15.3-13.262-24.91-17.454-9.61-4.168-20.48-6.269-32.57-6.269-12.1 0-22.96 2.101-32.58 6.269-9.62 4.192-17.92 10.012-24.9 17.454-6.98 7.449-12.33 16.527-16.05 27.238-3.72 10.699-5.58 22.57-5.58 35.59 0 13.039 1.86 24.91 5.58 35.609 3.72 10.691 9.07 19.762 16.05 27.231 6.98 7.429 15.28 13.242 24.9 17.441 9.62 4.18 20.48 6.277 32.58 6.277 12.09 0 22.96-2.097 32.57-6.277 9.61-4.199 17.92-10.012 24.91-17.441 6.96-7.469 12.32-16.54 16.05-27.231 3.71-10.699 5.59-22.57 5.59-35.609 0-13.02-1.88-24.891-5.59-35.59m11.87 122.62c-10.71 10.859-23.36 19.391-37.94 25.598-14.58 6.211-30.4 9.3-47.46 9.3s-32.88-3.089-47.47-9.3c-14.58-6.207-27.22-14.739-37.93-25.598s-19.08-23.742-25.12-38.621c-6.05-14.899-9.09-31.031-9.09-48.41 0-17.371 3.04-33.5 9.09-48.399 6.04-14.89 14.41-27.769 25.12-38.621 10.71-10.851 23.35-19.39 37.93-25.601 14.59-6.188 30.41-9.309 47.47-9.309s32.88 3.121 47.46 9.309c14.58 6.211 27.23 14.75 37.94 25.601 10.69 10.852 19.07 23.731 25.12 38.621 6.06 14.899 9.07 31.028 9.07 48.399 0 17.379-3.01 33.511-9.07 48.41-6.05 14.879-14.43 27.762-25.12 38.621m-1435 364.61c-9-9.781-20.62-14.648-34.89-14.648-14.28 0-25.99 4.867-35.15 14.648-9.14 9.758-13.71 22.571-13.71 38.391s4.57 28.629 13.71 38.391c9.16 9.777 20.87 14.648 35.15 14.648 14.27 0 25.89-4.871 34.89-14.648 8.99-9.762 13.51-22.571 13.51-38.391s-4.52-28.633-13.51-38.391m92.61 158.46h-78.65l-0.92-27.929c-7.14 11.179-16.68 19.839-28.63 26.07-11.94 6.199-25.2 9.289-39.78 9.289-15.83 0-30.57-3.25-44.21-9.77-13.65-6.511-25.52-15.511-35.6-26.992-10.09-11.48-17.91-25.051-23.51-40.711-5.57-15.679-8.37-32.66-8.37-50.957 0-18.633 2.71-35.679 8.14-51.191 5.43-15.52 12.96-28.852 22.58-40.02 9.61-11.172 21.09-19.851 34.43-26.058 13.34-6.211 28.08-9.321 44.22-9.321 15.5 0 29.38 3.039 41.64 9.09 12.26 6.047 21.95 14.66 29.09 25.821l0.92-27.454h78.65zm2268.2-662.68c0-21.422-8.45-38.321-25.35-50.731-16.92-12.402-39.65-18.621-68.18-18.621-14.9 0-29.63 2.102-44.22 6.301-14.56 4.179-26.21 9.539-34.89 16.039l16.3 28.39c20.14-11.781 41.09-17.691 62.81-17.691 17.06 0 30.26 2.961 39.55 8.852 9.31 5.898 13.97 14.269 13.97 25.129 0 4.968-0.7 9.32-2.09 13.031-1.41 3.73-4.13 7.07-8.15 10-4.04 2.961-9.63 5.82-16.75 8.609-7.14 2.801-16.45 5.899-27.93 9.309-25.13 7.453-43.12 16.609-53.98 27.461-10.86 10.871-16.29 25.121-16.29 42.82 0 19.852 7.69 35.75 23.04 47.699 15.35 11.942 36.06 17.91 62.13 17.91 11.78 0 24.35-1.781 37.68-5.347 13.35-3.563 24.51-8.153 33.52-13.742l-15.36-28.391c-19.24 9.641-37.85 14.43-55.84 14.43-31.34 0-47-9.438-47-28.379 0-9.61 3.56-17.289 10.7-23.039 7.13-5.731 19.55-11.243 37.23-16.52 14.89-4.332 27.37-8.832 37.46-13.492 10.07-4.649 18.22-9.848 24.43-15.59 6.21-5.75 10.62-12.25 13.26-19.539s3.95-15.59 3.95-24.898m-2556.4 246.64h-121v-308.08h-41.88v308.08h-120.99v35.832h283.87zm-183.59 458.85h26.53c40.32 0 60.49-16.141 60.49-48.399 0-33.211-20.47-49.8-61.43-49.8h-25.59zm46.53-168.46 61.89-114.48h102.39l-87.96 140.07c17.07 9.929 30.24 23.203 39.56 39.781 9.31 16.609 13.95 34.68 13.95 54.219 0 18.621-3.17 35.371-9.53 50.261-6.37 14.891-15.44 27.461-27.22 37.692-11.79 10.25-26.22 18.066-43.29 23.508-17.06 5.422-36.46 8.14-58.16 8.14h-127.5v-353.67h89.34v114.01h25.59zm223.35-396.49c12.72 0 23.42-2.262 32.12-6.762 8.68-4.481 15.65-10.309 20.94-17.438 5.27-7.14 9.06-15.351 11.39-24.671 1.84-7.329 2.74-14.801 3.13-22.329h-139.63c2.22 19.52 8.35 35.457 18.55 47.7 13.02 15.668 30.85 23.5 53.5 23.5m77.02 2.32c-9.15 9.937-20.09 17.68-32.81 23.269-12.72 5.579-26.68 8.379-41.88 8.379-16.76 0-32.11-3.019-46.07-9.07-13.95-6.07-25.99-14.59-36.06-25.609-10.09-11-17.92-24.2-23.5-39.551-5.59-15.359-8.38-32.188-8.38-50.488 0-37.532 11.17-66.77 33.5-87.719 22.34-20.942 53.68-31.422 94.01-31.422 16.43 0 32.33 1.871 47.7 5.59 15.34 3.719 28.31 8.84 38.86 15.359l-14.9 28.852c-23.89-9.61-47.16-14.422-69.8-14.422-29.48 0-51.97 7.062-67.48 21.172-12.92 11.738-20.36 28.801-22.53 50.969h177.03c0.32 3.089 0.54 5.898 0.7 8.351 0.14 2.5 0.23 6.988 0.23 13.508 0 17.07-2.48 32.66-7.44 46.769-4.97 14.133-12.03 26.141-21.18 36.063m2065.8-2.32c39.7 0 62.2-19.86 67.47-59.571 0.62-2.48 1.01-5.422 1.16-8.84 0.02-0.261 0.02-0.64 0.03-0.929h-138.43c2.2 18.168 8.15 33.308 17.89 45.379 12.87 15.98 30.16 23.961 51.88 23.961m78.18 3.019c-9 9.77-19.94 17.371-32.82 22.809-12.87 5.422-27.22 8.14-43.03 8.14-16.14 0-31.03-3.019-44.67-9.07-13.66-6.07-25.45-14.59-35.37-25.609-9.94-11-17.7-24.02-23.28-39.078-5.58-15.051-8.37-31.411-8.37-49.09 0-38.473 10.94-68.25 32.81-89.364 21.87-21.089 52.66-31.648 92.37-31.648 17.06 0 33.34 2.031 48.86 6.059 15.51 4.031 29.15 9.621 40.95 16.75l-13.97 29.781c-24.81-11.469-49.48-17.211-73.98-17.211-53.91 0-83.1 24.699-87.72 74h175.67c0.31 3.101 0.54 5.891 0.71 8.359 0.14 2.5 0.22 6.992 0.22 13.5 0 17.063-2.48 32.5-7.43 46.313-4.97 13.801-11.95 25.578-20.95 35.359m-1878.7-165.9 14.43-29.321c-9.94-5.582-21.34-9.929-34.21-13.031-12.87-3.101-25.82-4.66-38.86-4.66-19.23 0-36.69 2.789-52.35 8.379-15.67 5.582-29.01 13.672-40.02 24.211-11.01 10.551-19.47 23.262-25.36 38.16-5.9 14.879-8.85 31.48-8.85 49.789 0 18.301 3.03 34.981 9.08 50.02 6.05 15.05 14.5 28 25.37 38.863 10.86 10.859 23.96 19.297 39.31 25.367 15.36 6.051 32.18 9.07 50.49 9.07 24.51 0 48.09-6.199 70.74-18.621l-15.35-28.859c-8.07 4.043-16.75 7.07-26.06 9.09-9.31 2.011-18.47 3.019-27.46 3.019-26.37 0-47.24-7.758-62.59-23.269-15.36-15.52-23.04-36.449-23.04-62.828 0-27.289 7.83-48.621 23.51-63.981 15.66-15.359 37.3-23.031 64.92-23.031 17.98 0 36.75 3.883 56.3 11.633m248.04 171.26c14.43-17.071 21.64-41.731 21.64-74v-136.36h-39.55v129.38c0 24.82-4.35 42.981-13.03 54.441-8.69 11.489-22.34 17.231-40.95 17.231-20.48 0-36.38-6.75-47.71-20.25-11.32-13.5-16.97-32.332-16.97-56.543v-124.26h-39.57v344.38h39.57v-152.55c5.56 11.883 13.44 21.571 23.72 28.981 13.96 10.101 30.71 15.14 50.27 15.14 27.29 0 48.15-8.531 62.58-25.589m99.44 269.44c-12.25-2.16-24.9-3.27-37.92-3.27-60.5 0-90.74 31.489-90.74 94.481v85.617h-40.49v67.492h40.49v61.879h83.75v-61.879h78.19l-20.93-67.492h-57.26v-71.199c0-14.578 2.33-24.738 6.99-30.469 4.67-5.75 12.56-8.621 23.74-8.621 12.7 0 25.13 2.328 37.23 6.988l8.38-64.687c-8.7-3.723-19.17-6.66-31.43-8.84m1111.7-427.91c6.97 7.597 12.48 16.609 16.51 26.988 4.04 10.402 6.05 21.813 6.05 34.223 0 13.027-1.85 24.968-5.58 35.828-3.72 10.859-9 20.082-15.82 27.68-6.82 7.601-15.12 13.492-24.9 17.691-9.77 4.18-20.55 6.277-32.34 6.277-11.48 0-22.03-2.168-31.64-6.508-9.62-4.351-17.91-10.39-24.91-18.152-6.96-7.758-12.4-16.988-16.28-27.687-3.88-10.7-5.82-22.411-5.82-35.129 0-26.371 7.06-47.242 21.18-62.602 14.11-15.359 33.27-23.031 57.47-23.031 11.16 0 21.55 2.16 31.17 6.512 9.62 4.339 17.92 10.32 24.91 17.91m20.71 177.54h38.62v-212.66c0-90.289-41.42-135.43-124.25-135.43-8.69 0-17.47 0.55078-26.29 1.6289-8.84 1.0898-17.22 2.5625-25.14 4.4219-7.89 1.8594-15.2 4.0273-21.86 6.5273-6.68 2.4727-12.03 5.2617-16.07 8.3633l10.25 32.109c18.93-12.09 45.14-18.152 78.64-18.152 29.17 0 50.66 7.7618 64.45 23.274 13.81 15.52 20.7 39.867 20.7 73.066v26.992c-7.6-13.058-17.51-23.621-29.77-31.64-16.13-10.551-34.91-15.84-56.3-15.84-16.15 0-30.88 2.969-44.22 8.852-13.34 5.898-24.83 14.128-34.43 24.648-9.62 10.57-17.07 23.281-22.34 38.172-5.28 14.898-7.9 31.348-7.9 49.34 0 17.367 2.85 33.508 8.6 48.386 5.74 14.903 13.73 27.852 23.98 38.864 10.23 11.019 22.23 19.699 36.04 26.058 13.82 6.36 28.78 9.539 44.92 9.539 20.16 0 37.99-5.5 53.51-16.519 11.32-8.031 20.6-18.41 27.95-30.981zm-2807.6 369.87c8.85-0.883 17.5-2.422 25.92-4.551l45.13 257.61c-8.54 1.789-17.18 3.3-25.89 4.582zm-136.38-45.652-198.71 167.89c-9.21-10.039-17.96-20.527-26.21-31.418l198.24-167.58c7.65 11.403 16.62 21.821 26.68 31.11m346.52 242.62c-6.96 4.351-14.01 8.57-21.23 12.519l-129.86-226.21c7.45-3.617 14.6-7.726 21.41-12.328zm98.11-84.039-198.11-167.31c4.87-5.18 9.44-10.637 13.66-16.379l198.04 167.23c-4.4 5.59-8.92 11.09-13.59 16.461m-496.49-247.86c3.58 15.508 9.16 30.25 16.54 43.891l-243.38 89.25c-6.1-14.332-11.45-29.07-16.02-44.16zm345.96-39.429c0-96.782-78.46-175.23-175.23-175.23-86.68 0-158.61 62.949-172.69 145.61l-242.93-89.101c5.4-18.969 12.01-37.418 19.8-55.238l241.44 88.531-197.09-166.75c12.48-17.512 26.2-34.051 41.06-49.481l184.28 155.78-120.22-210.59c19.1-13.359 39.28-25.238 60.46-35.418l112.96 197.85-39.41-225.13c24.12-6.52 49.07-10.961 74.67-13.18l36.78 210.38 36.91-210.51c26.79 2.238 52.89 6.899 78.07 13.82l-34.22 195.3 98.55-171.9c26.98 12.332 52.49 27.332 76.17 44.742l-90.46 157.61 138.31-116.81c22.06 21.762 41.8 45.871 58.84 71.941l-123.6 104.32 151.3-55.461c14.01 29.039 24.84 59.91 32.2 92.101l-132.83 48.637 141.14 0.023c1.82 16.227 2.84 32.688 2.84 49.411 0 19.347-1.38 38.347-3.81 57.019h-263.25c6.43-18.23 9.96-37.82 9.96-58.269m-350.47 0c0 9.726 0.84 19.257 2.36 28.558h-258.56c-0.57-9.039-0.94-18.121-0.94-27.308 0-8.571 0.32-17.071 0.8-25.52h258.06c-1.1 7.938-1.72 16.027-1.72 24.27m73.68 142.75c9.46 6.75 19.62 12.578 30.37 17.367l-129.88 226.55c-10.33-5.481-20.38-11.372-30.2-17.641zm11.6 284.36c9.44 2.019 19 3.68 28.65 5.059l45.18-257.71c-9.83-0.887-19.44-2.579-28.73-5.039l-45.1 257.69" fill="#100f0d"/><path d="m10951 2065c-24.6 6.33-30.7 9.39-30.7 18.76v0.42c0 6.92 6.3 12.43 18.3 12.43s24.5-5.3 37.1-14.07l16.3 23.65c-14.4 11.62-32.2 18.15-53 18.15-29.1 0-49.9-17.13-49.9-43.02v-0.41c0-28.33 18.5-36.29 47.3-43.64 23.8-6.11 28.7-10.18 28.7-18.12v-0.41c0-8.37-7.7-13.47-20.6-13.47-16.3 0-29.7 6.73-42.6 17.33l-18.5-22.23c17.1-15.28 38.9-22.82 60.5-22.82 30.8 0 52.4 15.9 52.4 44.24v0.4c0 24.89-16.3 35.27-45.3 42.81" fill="#100f0d"/><path d="m11132 2122.3-37.5-60.34-37.5 60.34h-33.9v-142.71h30.8v92.57l39.8-60.35h0.8l40.2 60.96v-93.18h31.2v142.71h-33.9" fill="#100f0d"/></g></g></svg>
